<svg xmlns="http://www.w3.org/2000/svg" viewBox="0 0 512 512" role="img" aria-labelledby="title desc">
  <title id="title">DentPro Colombia</title>
  <desc id="desc">Logotipo circular azul con letras DentPro y un icono de diente brillante.</desc>
  <defs>
    <radialGradient id="bg" cx="50%" cy="50%" r="65%">
      <stop offset="0%" stop-color="#0d4ab1" />
      <stop offset="100%" stop-color="#002d80" />
    </radialGradient>
    <linearGradient id="dent" x1="0%" y1="0%" x2="100%" y2="100%">
      <stop offset="0%" stop-color="#cbe6ff" />
      <stop offset="100%" stop-color="#52a9ff" />
    </linearGradient>
    <linearGradient id="tooth" x1="0%" y1="0%" x2="100%" y2="100%">
      <stop offset="0%" stop-color="#9dd8ff" />
      <stop offset="100%" stop-color="#0f72ff" />
    </linearGradient>
  </defs>
  <g fill="none" fill-rule="evenodd">
    <circle cx="256" cy="256" r="248" fill="url(#bg)" />
    <g transform="translate(64 160)">
      <path d="M72 188c53.3 0 96-42.7 96-96s-42.7-96-96-96H24v40h48c31 0 56 25 56 56s-25 56-56 56H24v40h48z" fill="url(#dent)" />
      <rect x="188" y="60" width="28" height="160" rx="14" fill="#f2fbff" />
      <path d="M188 60c0-16.6 13.4-30 30-30s30 13.4 30 30v160h-30c-16.6 0-30-13.4-30-30V60z" fill="url(#dent)" />
      <path d="M286 204h102c11 0 20-9 20-20s-9-20-20-20h-70c-14.4 0-26-11.6-26-26s11.6-26 26-26h86c11 0 20-9 20-20s-9-20-20-20H304c-36.5 0-66 29.5-66 66s29.5 66 66 66z" fill="#fbe96c" />
      <g transform="translate(284 6)">
        <path d="M92 38c26 0 52 18 52 48 0 34-26 92-44 140-8 22-36 22-44 0-18-48-44-106-44-140 0-30 26-48 52-48 12 0 22 4 30 10 8-6 18-10 30-10z" fill="url(#tooth)" />
        <path d="M104 24c-10 0-19 3-26 8-7-5-16-8-26-8-28 0-52 20-52 50 0 12 3 26 8 42 10-24 33-40 70-40 22 0 38-4 50-12-5-24-26-40-50-40z" fill="#d0edff" opacity=".75" />
        <path d="M80 62c2-4 6-6 10-6 8 0 14 6 14 14 0 8-6 14-14 14-5 0-8-2-10-6 6 0 10-4 10-8s-4-8-10-8z" fill="#f5fbff" />
        <circle cx="120" cy="12" r="8" fill="#f5fbff" />
        <circle cx="140" cy="28" r="6" fill="#f5fbff" />
      </g>
    </g>
  </g>
</svg>
